<svg width="19" height="18" viewBox="0 0 19 18" fill="none" xmlns="http://www.w3.org/2000/svg">
<path d="M0.945312 10.3867V8.0625C0.945312 7.71094 1.05599 7.42448 1.27734 7.20312C1.51172 6.96875 1.79818 6.85156 2.13672 6.85156H7.01953V1.98828C7.01953 1.63672 7.13021 1.35026 7.35156 1.12891C7.58594 0.894531 7.87891 0.777344 8.23047 0.777344H10.5352C10.8867 0.777344 11.1732 0.894531 11.3945 1.12891C11.6289 1.35026 11.7461 1.63672 11.7461 1.98828V6.85156H16.8633C17.2148 6.85156 17.5013 6.96875 17.7227 7.20312C17.957 7.42448 18.0742 7.71094 18.0742 8.0625V10.3867C18.0742 10.7383 17.957 11.0247 17.7227 11.2461C17.5013 11.4674 17.2148 11.5781 16.8633 11.5781H11.7461V16.6953C11.7461 17.0469 11.6289 17.3398 11.3945 17.5742C11.1732 17.7956 10.8867 17.9062 10.5352 17.9062H8.23047C7.87891 17.9062 7.58594 17.7956 7.35156 17.5742C7.13021 17.3398 7.01953 17.0469 7.01953 16.6953V11.5781H2.13672C1.78516 11.5781 1.4987 11.4674 1.27734 11.2461C1.05599 11.0247 0.945312 10.7383 0.945312 10.3867Z" fill="#343B64"/>
</svg>
